<?xml version="1.0" encoding="UTF-8" standalone="no"?>

<svg
  xmlns:dc="http://purl.org/dc/elements/1.1/"
  xmlns:cc="http://creativecommons.org/ns#"
  xmlns:rdf="http://www.w3.org/1999/02/22-rdf-syntax-ns#"
  xmlns:svg="http://www.w3.org/2000/svg"
  xmlns="http://www.w3.org/2000/svg"
  viewBox="0 0 636.96802 632.4787"
  height="632.4787"
  width="636.96802"
  xml:space="preserve"
  id="svg2"
  version="1.1">
  <metadata
    id="metadata8">
    <rdf:RDF>
      <cc:Work
        rdf:about="">
        <dc:format>image/svg+xml</dc:format>
        <dc:type
          rdf:resource="http://purl.org/dc/dcmitype/StillImage" />
      </cc:Work>
    </rdf:RDF>
  </metadata>
  <defs
    id="defs6">
    <clipPath
      id="clipPath18"
      clipPathUnits="userSpaceOnUse">
      <path
        id="path16"
        d="M 0,0 H 477.726 V 474.359 H 0 Z" />
    </clipPath>
  </defs>
  <g
    transform="matrix(1.3333333,0,0,-1.3333333,0,632.47867)"
    id="g10">
    <g
      id="g12">
      <g
        clip-path="url(#clipPath18)"
        id="g14">
        <g
          transform="translate(177.2915,299.3472)"
          id="g20">
          <path
            id="path22"
            style="fill:#fbc10d;fill-opacity:1;fill-rule:nonzero;stroke:none"
            d="M 0,0 -71.181,108.084 C -143.938,51.821 -171.8,-41.963 -147.301,-126.05 l 127.132,29.979 c -3.977,10.126 -6.163,21.153 -6.163,32.689 0,24.768 10.068,47.184 26.332,63.382" />
        </g>
        <g
          transform="translate(293.7471,307.7852)"
          id="g24">
          <path
            id="path26"
            style="fill:#8bd024;fill-opacity:1;fill-rule:nonzero;stroke:none"
            d="m 0,0 69.375,107.545 c -72.402,49.285 -170.204,51.768 -246.214,-0.055 l 68.233,-108.971 c 15.215,11.972 34.409,19.115 55.273,19.115 C -33.347,17.634 -14.893,11.077 0,0" />
        </g>
        <g
          transform="translate(161.8491,193.1611)"
          id="g28">
          <path
            id="path30"
            style="fill:#8c79c4;fill-opacity:1;fill-rule:nonzero;stroke:none"
            d="m 0,0 -127.722,-32.543 c 6.844,-19.059 16.464,-37.471 28.953,-54.661 41.343,-56.903 105.01,-88.021 170.244,-90.032 L 73.4,-46.497 C 41.688,-44.691 14.399,-26.372 0,0" />
        </g>
        <g
          transform="translate(247.2715,146.7705)"
          id="g32">
          <path
            id="path34"
            style="fill:#48a1de;fill-opacity:1;fill-rule:nonzero;stroke:none"
            d="m 0,0 -0.089,-129.985 c 42.44,1.245 84.923,14.829 121.861,41.666 36.938,26.838 63.002,63.055 77.299,103.033 L 77.418,59.147 C 65.805,26.581 35.857,2.719 0,0" />
        </g>
        <g
          transform="translate(329.8672,235.9658)"
          id="g36">
          <path
            id="path38"
            style="fill:#3fb5aa;fill-opacity:1;fill-rule:nonzero;stroke:none"
            d="m 0,0 c 0,-6.988 -0.803,-13.79 -2.319,-20.317 l 122.405,-42.36 c 18.249,62.693 8.33,132.859 -33.013,189.762 -12.49,17.191 -27.028,32.031 -43.037,44.429 L -27.352,64.378 C -10.49,48.108 0,25.281 0,0" />
        </g>
        <g
          transform="translate(215.812,246.1963)"
          id="g40">
          <path
            id="path42"
            style="fill:#15262b;fill-opacity:1;fill-rule:nonzero;stroke:none"
            d="M 0,0 H 4.879 L 9.624,-16.592 14.413,0 h 4.745 L 11.699,-21.855 H 7.384 Z" />
        </g>
      <g id="gAll">
        <g
          transform="translate(238.0571,227.3955)"
          id="g44">
          <path
            id="path46"
            style="fill:#15262b;fill-opacity:1;fill-rule:nonzero;stroke:none"
            d="m 0,0 c 0.395,-0.327 0.879,-0.49 1.453,-0.49 0.909,0 1.747,0.267 2.513,0.801 0.766,0.534 1.164,1.507 1.195,2.92 V 4.804 C 4.893,4.636 4.624,4.499 4.352,4.396 4.081,4.292 3.707,4.195 3.233,4.106 L 2.283,3.929 C 1.394,3.771 0.756,3.577 0.371,3.351 -0.282,2.965 -0.608,2.367 -0.608,1.556 -0.608,0.835 -0.406,0.315 0,0 m -3.144,11.357 c 1.118,1.424 3.035,2.136 5.754,2.136 1.769,0 3.342,-0.351 4.715,-1.053 1.374,-0.702 2.061,-2.026 2.061,-3.974 V 1.052 c 0,-0.514 0.01,-1.137 0.03,-1.868 0.029,-0.554 0.114,-0.929 0.251,-1.127 0.139,-0.198 0.347,-0.362 0.624,-0.49 V -3.055 H 5.694 C 5.566,-2.729 5.476,-2.423 5.426,-2.136 5.376,-1.85 5.338,-1.523 5.309,-1.157 4.725,-1.79 4.053,-2.329 3.292,-2.773 2.382,-3.297 1.354,-3.56 0.208,-3.56 c -1.464,0 -2.672,0.418 -3.625,1.253 -0.956,0.836 -1.432,2.019 -1.432,3.552 0,1.986 0.766,3.425 2.299,4.315 0.84,0.484 2.075,0.83 3.706,1.038 L 2.595,6.776 C 3.375,6.875 3.934,6.998 4.27,7.146 4.873,7.403 5.174,7.804 5.174,8.348 5.174,9.01 4.946,9.467 4.486,9.719 4.025,9.971 3.351,10.097 2.461,10.097 1.463,10.097 0.756,9.85 0.34,9.356 0.044,8.99 -0.154,8.496 -0.252,7.873 H -4.33 c 0.089,1.414 0.484,2.575 1.186,3.484" />
        </g>
        <path
          id="path48"
          style="fill:#15262b;fill-opacity:1;fill-rule:nonzero;stroke:none"
          d="m 250.069,246.196 h 4.226 v -21.855 h -4.226 z" />
        <g
          transform="translate(267.5664,226.624)"
          id="g50">
          <path
            id="path52"
            style="fill:#15262b;fill-opacity:1;fill-rule:nonzero;stroke:none"
            d="m 0,0 c -0.039,-0.05 -0.138,-0.198 -0.296,-0.445 -0.158,-0.247 -0.347,-0.465 -0.564,-0.652 -0.661,-0.594 -1.302,-1 -1.919,-1.216 -0.618,-0.217 -1.343,-0.327 -2.173,-0.327 -2.393,0 -4.003,0.861 -4.834,2.58 -0.464,0.949 -0.696,2.348 -0.696,4.197 v 9.742 h 4.33 V 4.137 c 0,-0.92 0.107,-1.612 0.325,-2.076 0.386,-0.821 1.142,-1.231 2.269,-1.231 1.444,0 2.432,0.583 2.965,1.749 0.278,0.633 0.415,1.469 0.415,2.507 v 8.793 H 4.108 V -2.283 l -4.108,0 z" />
        </g>
        <g
          transform="translate(284.1904,234.0371)"
          id="g54">
          <path
            id="path56"
            style="fill:#15262b;fill-opacity:1;fill-rule:nonzero;stroke:none"
            d="m 0,0 c -0.069,1.117 -0.407,1.965 -1.016,2.543 -0.607,0.579 -1.361,0.868 -2.26,0.868 -0.98,0 -1.739,-0.307 -2.277,-0.919 C -6.093,1.878 -6.431,1.049 -6.568,0 Z M 4.182,-4.952 C 4.073,-5.911 3.573,-6.885 2.684,-7.873 1.3,-9.444 -0.638,-10.23 -3.128,-10.23 c -2.057,0 -3.87,0.662 -5.442,1.986 -1.573,1.325 -2.359,3.479 -2.359,6.466 0,2.797 0.71,4.942 2.129,6.435 1.418,1.492 3.259,2.239 5.524,2.239 1.343,0 2.554,-0.252 3.632,-0.756 C 1.433,5.635 2.323,4.839 3.024,3.752 3.657,2.793 4.068,1.682 4.256,0.416 4.364,-0.326 4.408,-1.394 4.389,-2.787 H -6.672 c 0.059,-1.621 0.568,-2.758 1.526,-3.41 0.584,-0.407 1.286,-0.609 2.106,-0.609 0.87,0 1.577,0.247 2.12,0.742 0.297,0.267 0.559,0.638 0.786,1.112 z" />
        </g>
        <g
          transform="translate(301.9551,239.7612)"
          id="g58">
          <path
            id="path60"
            style="fill:#15262b;fill-opacity:1;fill-rule:nonzero;stroke:none"
            d="m 0,0 c 1.265,-0.811 1.992,-2.204 2.18,-4.181 h -4.227 c -0.058,0.543 -0.212,0.973 -0.459,1.29 -0.465,0.573 -1.256,0.86 -2.372,0.86 -0.92,0 -1.574,-0.144 -1.965,-0.43 -0.39,-0.287 -0.586,-0.623 -0.586,-1.009 0,-0.484 0.208,-0.835 0.623,-1.052 0.415,-0.228 1.883,-0.619 4.404,-1.172 1.68,-0.395 2.941,-0.994 3.782,-1.794 0.83,-0.811 1.245,-1.824 1.245,-3.04 0,-1.601 -0.596,-2.908 -1.786,-3.922 -1.192,-1.012 -3.034,-1.519 -5.525,-1.519 -2.541,0 -4.416,0.536 -5.627,1.608 -1.21,1.073 -1.817,2.44 -1.817,4.1 h 4.286 c 0.089,-0.751 0.282,-1.285 0.578,-1.601 0.525,-0.564 1.493,-0.846 2.908,-0.846 0.83,0 1.489,0.125 1.978,0.372 0.49,0.247 0.734,0.617 0.734,1.111 0,0.475 -0.198,0.836 -0.592,1.083 -0.396,0.246 -1.865,0.672 -4.406,1.275 -1.828,0.454 -3.118,1.023 -3.869,1.704 -0.751,0.673 -1.127,1.641 -1.127,2.908 0,1.492 0.585,2.775 1.757,3.847 1.172,1.073 2.821,1.609 4.946,1.609 2.016,0 3.663,-0.4 4.937,-1.201" />
        </g>
        <g
          transform="translate(221.2773,261.1211)"
          id="g62">
          <path
            id="path64"
            style="fill:#89cf27;fill-opacity:1;fill-rule:nonzero;stroke:none"
            d="m 0,0 c 1.735,0.366 3.532,0.56 5.374,0.56 1.843,0 3.64,-0.194 5.375,-0.56 3.696,-0.78 7.105,-2.348 10.044,-4.519 1.05,-0.774 2.039,-1.626 2.961,-2.546 l 4.943,4.943 8.487,8.486 -10.278,-6.823 C 22.051,3.731 15.964,6.532 9.271,7.323 L 5.374,26.613 1.479,7.324 c -6.694,-0.79 -12.78,-3.592 -17.637,-7.783 l 6.113,-4.06 C -7.106,-2.348 -3.696,-0.78 0,0" />
        </g>
        <g
          transform="translate(232.0264,210.2314)"
          id="g66">
          <path
            id="path68"
            style="fill:#89cf27;fill-opacity:1;fill-rule:nonzero;stroke:none"
            d="m 0,0 c -1.735,-0.365 -3.533,-0.56 -5.375,-0.56 -1.841,0 -3.639,0.195 -5.374,0.56 -3.697,0.78 -7.105,2.35 -10.043,4.52 -1.049,0.775 -2.041,1.625 -2.961,2.545 l -4.944,-4.942 -8.486,-8.486 10.277,6.823 c 4.856,-4.19 10.942,-6.992 17.636,-7.783 l 3.895,-19.289 3.896,19.288 c 6.693,0.791 12.781,3.593 17.636,7.783 L 10.044,4.52 C 7.106,2.348 3.696,0.78 0,0" />
        </g>
        <g
          transform="translate(205.7256,220.2568)"
          id="g70">
          <path
            id="path72"
            style="fill:#89cf27;fill-opacity:1;fill-rule:nonzero;stroke:none"
            d="m 0,0 c -2.171,2.939 -3.738,6.349 -4.519,10.045 -0.366,1.735 -0.559,3.532 -0.559,5.374 0,1.843 0.193,3.641 0.56,5.375 0.78,3.696 2.347,7.106 4.518,10.044 0.775,1.05 1.626,2.04 2.547,2.961 l -4.943,4.943 -8.486,8.487 6.823,-10.277 C -8.25,32.095 -11.05,26.009 -11.841,19.315 l -19.291,-3.896 19.289,-3.895 c 0.791,-6.693 3.593,-12.78 7.784,-17.637 z" />
        </g>
        <g
          transform="translate(226.4839,215.1377)"
          id="g74">
          <path
            id="path76"
            style="fill:#89cf27;fill-opacity:1;fill-rule:nonzero;stroke:none"
            d="m 0,0 c -11.456,0 -20.742,9.286 -20.742,20.742 0,11.455 9.286,20.741 20.742,20.741 5.822,0 11.083,-2.4 14.85,-6.262 l 1.053,1.052 c -4.037,4.133 -9.67,6.7 -15.903,6.7 -12.278,0 -22.232,-9.953 -22.232,-22.231 0,-12.278 9.954,-22.231 22.232,-22.231 4.41,0 8.52,1.284 11.977,3.499 L 10.61,2.917 C 7.505,1.065 3.877,0 0,0" />
        </g>
      </g>
      </g>
    </g>
    <text
      id="text88"
      style="font-variant:normal;font-weight:900;font-stretch:normal;font-size:19.54719925px;font-family:'HelveticaNeueLT Std Blk';-inkscape-font-specification:HelveticaNeueLTStd-Blk;writing-mode:lr-tb;fill:#15262b;fill-opacity:1;fill-rule:nonzero;stroke:none"
      transform="matrix(1,0,0,-1,178.7202,403.2344)">
      <tspan
        id="tspan78"
        y="0"
        x="0 14.992702 27.092419 38.840286 50.940002 56.901897 68.982071 80.729935 92.477806 100.58989 111.24312">Open doors.</tspan>
      <tspan
        id="tspan80"
        y="282.35931"
        x="84.65892 99.299774 107.41187 113.00237 123.28419 135.03206 140.99396 152.35088 164.45059 175.80751 187.90723 199.65511 211.40297">Drive change.</tspan>
      <tspan
        id="tspan82"
        y="292.44565"
        x="238.14354"> </tspan>
      <tspan
        id="tspan84"
        y="282.33975"
        x="-81.316353 -66.675499 -54.927631 -48.965736 -37.217869 -25.470001 -13.722135 -1.6224176">Do good.</tspan>
      <tspan
        id="tspan86"
        y="104.44069"
        x="-128.19054 -115.01572 -103.6588 -95.546715 -83.466545 -77.504646 -70.135353 -62.023266 -49.943096 -39.289871 -31.920578">Earn trust.</tspan>
    </text>
    <text
      id="text132"
      style="font-variant:normal;font-weight:bold;font-stretch:normal;font-size:9.85400009px;font-family:'HelveticaNeueLT Std';-inkscape-font-specification:HelveticaNeueLTStd-Bd;writing-mode:lr-tb;fill:#ffffff;fill-opacity:1;fill-rule:nonzero;stroke:none"
      transform="matrix(1,0,0,-1,156.4941,387.853)">
      <tspan
        id="tspan90"
        y="0"
        x="0 9.4007158 15.155452 17.983549 23.738285 27.670033 33.424767 36.262718 42.204681 47.959419 51.891163 57.645901 60.473999 64.041145 70.160477 72.998428 78.940392 84.695129 87.326149 93.44548 96.273582 102.38306 108.32502 112.25677 115.09472 120.84946 126.79142 132.18155 135.7487 141.85818 150.88445 156.63919 160.57092 165.96107">We are here to help our customers </tspan>
      <tspan
        id="tspan92"
        y="12.179544"
        x="3.931746 7.863492 13.618228 19.372965 22.003983 24.635 29.847767 35.602501 38.440453 43.830593 49.772552 55.52729 61.282024 67.036758 72.426903 77.817039 80.654991 83.492943 89.602425 97.712265 103.65423 106.48232 112.42429 118.53377 127.56003 133.31477 138.70491 141.533 145.10014 151.04211 156.79684 162.00961">realize success, own homes they </tspan>
      <tspan
        id="tspan94"
        y="24.359089"
        x="1.813136 4.4540081 10.563488 15.786108 21.540844 24.378796 27.206894 32.961632 38.903591 45.022926 47.851025 53.605759 57.537506 63.29224 69.046982 72.614128 78.368858 81.19696 90.223221 96.34256 100.27431 106.02904 108.86699 114.98633 121.10566 127.21514 133.33447 137.26622 140.83337 146.77533 152.71729 155.35817 158.92531 164.13808">love, and create more opportunity </tspan>
      <tspan
        id="tspan96"
        y="36.538631"
        x="25.295218 28.665285 34.774765 38.706512 41.534611 45.101757 51.04372 56.798454 65.824722 68.662674 74.772156 80.891487 89.011185 94.95314 97.781242 101.34839 107.29035 113.04509 115.87318 119.80493 125.91441 131.66914 137.78848 140.62643">for them down the road. </tspan>
      <tspan
        id="tspan98"
        y="106.19656"
        x="172.5731 181.63878 187.05849 189.5614 194.6165 197.84862 201.44533 203.75116 208.63875 214.05844 216.5515 219.78362 225.56792 228.06097 233.84528 239.26497 241.75804 250.44926 256.23355 259.83026 265.24997">We strive to be more </tspan>
      <tspan
        id="tspan100"
        y="118.3761"
        x="177.92383 181.15593 186.76286 192.18256 197.78949 200.28255 205.70226 208.20517 213.97961 216.28545 221.70514 227.12485 232.54454 235.04745 238.27957 244.05402 246.55693 254.33174 260.10617 263.70288 269.12259 271.61566 275.37988">than a place to work - </tspan>
      <tspan
        id="tspan102"
        y="130.55565"
        x="181.24463 189.01942 194.62636 200.04605 203.64276 209.06247 211.55553 217.32997 222.74966 228.52411 234.30841 236.6044 242.02409 244.51715 250.12408 255.54378 260.43137 265.85107 268.35397 273.77368">where people have a </tspan>
      <tspan
        id="tspan104"
        y="142.73518"
        x="183.1366 188.1917 193.61139 199.21832 204.27342 209.69312 212.18619 217.97047 221.00551 223.49858 229.28287 234.70258 236.99855 242.78285 248.38977 254.16422 256.46021 262.06714 267.84158 270.34448">sense of belonging, </tspan>
      <tspan
        id="tspan106"
        y="154.91473"
        x="183.95447 191.72928 197.51358 201.11029 206.52998 210.30406 212.60005 214.90588 217.94092 223.36061 225.86354 231.63799 237.05768 239.36351 244.78322 250.39014 255.80984 261.22955 263.7226 266.22552 271.64523 277.25214 283.02658">work-life balance, and </tspan>
      <tspan
        id="tspan108"
        y="167.09428"
        x="184.03331 189.453 191.95592 195.18803 198.78474 204.39166 209.81137 212.31429 217.73398 223.15369 226.7504 232.17009 237.5898 241.18651 243.68942 249.46387 254.88356 258.11566 263.7226">a true career path.</tspan>
      <tspan
        id="tspan110"
        y="282.41565"
        x="107.47758 116.54326 121.96296 124.46587 133.1571 138.76402 143.81914 147.05124 149.55415 154.60925 160.02896 163.26108 165.75414 168.98625 174.59317 180.01288 182.50594 187.56104 190.79315 196.21284 201.81978 207.59422 213.01392 216.61063 222.38507">We must set the standard.</tspan>
      <tspan
        id="tspan112"
        y="294.59518"
        x="107.47758 113.99107 119.76552 124.6531 130.0728 135.67973 141.09943 146.51912 149.01219 152.24429 157.664 163.08369 168.69063 174.29755 180.07199 182.37784 188.15228 193.93657 198.80444 201.29752 206.71721 212.32414 218.10843">Advance technology and </tspan>
      <tspan
        id="tspan114"
        y="306.77472"
        x="107.47758 112.53268 118.1396 123.19471 126.42682 131.84653 134.15236 139.75928 145.17899 150.96329 153.26912 155.57495 157.87094 161.10304 165.97092 168.47383 170.97676 176.39645 182.00339">sustainability, and</tspan>
      <tspan
        id="tspan116"
        y="318.95428"
        x="107.47758 109.78342 118.47464 124.25894 126.56477 131.98448 140.6757 146.0954 151.70233 154.93445 157.42751 162.31509 164.62093 169.67603 171.98186 177.7563 183.36324 188.78293 192.37964 197.25737">implement visionary </tspan>
      <tspan
        id="tspan118"
        y="331.13382"
        x="107.47758 113.26188 116.85859 122.27829 127.69798 130.9301 133.23593 138.65564 144.07533 149.13043 151.63335 153.93919 159.54611 162.03917 167.45888 169.75485">practices in all</tspan>
      <tspan
        id="tspan120"
        y="343.31335"
        x="107.47758 115.26224 120.68194 123.175 128.9593 134.74359 137.23666">we do. </tspan>
      <tspan
        id="tspan122"
        y="282.34665"
        x="-76.69368 -69.657928 -63.903191 -61.065239 -55.310501 -52.669628 -46.727669 -40.608334 -37.770382 -32.015648 -26.073685 -19.964205 -17.126251 -11.371516 -5.252182 -2.61131 0.029562 5.7842979 11.893778 18.013111 21.944859 27.699594 31.266743 33.907616 39.130234 44.884972">Be kind and collaborative.</tspan>
      <tspan
        id="tspan124"
        y="294.52621"
        x="-64.799904 -58.128746 -54.196999 -48.087521 -39.061256 -32.941921 -29.374775 -23.620037 -20.782085 -15.02735 -8.9080162 -2.966054 -0.32518199 3.241966 8.4547319 11.28283 14.110928 19.865664 25.807627 31.917107 34.755058 40.874393 46.629128">Promote equity, and be </tspan>
      <tspan
        id="tspan126"
        y="306.70575"
        x="-51.142262 -43.032417 -37.277683 -34.646664 -28.891928 -22.772594 -13.74633 -11.115312 -5.1733499 0.94598401 3.783936 7.3510842 13.470418 16.308371 22.063107 27.285727 33.040462 36.972206 42.184975 48.30431 54.246269 60.001007">welcoming to everyone.</tspan>
      <tspan
        id="tspan128"
        y="105.83196"
        x="-105.46736 -98.076859 -91.957527 -88.390381 -82.448418 -79.817398 -73.875435 -67.765961 -64.928009 -56.808311 -50.688976 -46.757229 -41.002495">Nothing works</tspan>
      <tspan
        id="tspan130"
        y="118.0115"
        x="-105.46736 -97.347664 -94.716644 -91.149498 -85.207535 -79.088203 -73.14624 -69.579094 -66.741142 -64.100273 -60.533123">without it.</tspan>
    </text>
    <text
      id="text136"
      style="font-variant:normal;font-weight:900;font-stretch:normal;font-size:19.54719925px;font-family:'HelveticaNeueLT Std Blk';-inkscape-font-specification:HelveticaNeueLTStd-Blk;writing-mode:lr-tb;fill:#15262b;fill-opacity:1;fill-rule:nonzero;stroke:none"
      transform="matrix(1,0,0,-1,326.834,299.0327)">
      <tspan
        id="tspan134"
        y="0"
        x="0 13.898059 25.645926 31.588276 42.945198 48.907093 60.987263 72.73513 90.992218 102.74008">Be a home.</tspan>
    </text>
  </g>
  <style>
#gAll:hover #g36 {
  transform: translate(230px, 230px) scale(.1);
}

</style>
</svg>
