<?xml version="1.0" encoding="UTF-8" standalone="no"?>
<svg
  xmlns:dc="http://purl.org/dc/elements/1.1/"
  xmlns:cc="http://creativecommons.org/ns#"
  xmlns:rdf="http://www.w3.org/1999/02/22-rdf-syntax-ns#"
  xmlns:svg="http://www.w3.org/2000/svg"
  xmlns="http://www.w3.org/2000/svg"
  viewBox="0 0 885.33331 841.18134"
  height="841.18134"
  width="885.33331"
  xml:space="preserve"
  id="svg2"
  version="1.1">
  <metadata
    id="metadata8">
    <rdf:RDF>
      <cc:Work
        rdf:about="">
        <dc:format>image/svg+xml</dc:format>
        <dc:type
          rdf:resource="http://purl.org/dc/dcmitype/StillImage" />
      </cc:Work>
    </rdf:RDF>
  </metadata>
  <defs
    id="defs6">
    <clipPath
      id="clipPath18"
      clipPathUnits="userSpaceOnUse">
      <path
        id="path16"
        d="M 0,630.886 H 664 V 0 H 0 Z" />
    </clipPath>
  </defs>
  <g
    transform="matrix(1.3333333,0,0,-1.3333333,0,841.18133)"
    id="g10">
    <g
      id="g12">
      <g
        clip-path="url(#clipPath18)"
        id="g14">
        <g
          transform="translate(3.0913,432.4209)"
          id="g20">
          <path
            id="path22"
            style="fill:#159ed9;fill-opacity:1;fill-rule:nonzero;stroke:none"
            d="m 0,0 -0.294,-430.297 c 140.486,4.121 281.122,49.088 403.4,137.929 122.278,88.842 208.557,208.734 255.886,341.072 L 256.278,195.795 C 217.836,87.989 118.702,8.999 0,0" />
        </g>
      </g>
    </g>
    <text
      id="text26"
      style="font-variant:normal;font-weight:900;font-stretch:normal;font-size:64.70780182px;font-family:'HelveticaNeueLT Std Blk';-inkscape-font-specification:HelveticaNeueLTStd-Blk;writing-mode:lr-tb;fill:#05292f;fill-opacity:1;fill-rule:nonzero;stroke:none"
      transform="matrix(1,0,0,-1,56.416,346.6934)">
      <tspan
        id="tspan24"
        y="0"
        x="0 48.466141 75.319878 93.826309 127.86261 166.752 186.48788 224.08311 264.13724 301.73248 341.78659 380.67599 419.56537">Drive change.</tspan>
    </text>
    <text
      id="text40"
      style="font-variant:normal;font-weight:bold;font-stretch:normal;font-size:32.61989975px;font-family:'HelveticaNeueLT Std';-inkscape-font-specification:HelveticaNeueLTStd-Bd;writing-mode:lr-tb;fill:#ffffff;fill-opacity:1;fill-rule:nonzero;stroke:none"
      transform="matrix(1,0,0,-1,58.376,295.5928)">
      <tspan
        id="tspan28"
        y="0"
        x="0 30.010307 47.951252 56.236706 85.007462 103.56818 120.30219 131.00153 139.28697 156.02098 173.96193 184.66125 192.91409 203.61342 222.17413 240.11508 248.36792 265.10193 275.80127 293.74219 312.30292 331.41818 349.35913 361.26538 380.38065">We must set the standard.</tspan>
      <tspan
        id="tspan30"
        y="40.318195"
        x="0 21.561754 40.677013 56.856487 74.797432 93.358154 111.2991 129.24005 137.49287 148.1922 166.13315 184.0741 202.63481 221.19554 240.31081 247.94386 267.05911 286.207 302.32123 310.57407 328.51501 347.07574 366.2236">Advance technology and </tspan>
      <tspan
        id="tspan32"
        y="80.636391"
        x="0 16.734009 35.294731 52.02874 62.728069 80.669014 88.302071 106.86279 124.80373 143.95161 151.58467 159.21773 166.81816 177.5175 193.63173 201.91718 210.20264 228.14359 246.7043">sustainability, and</tspan>
      <tspan
        id="tspan34"
        y="120.95459"
        x="0 7.6330566 36.403809 55.551689 63.184746 81.125694 109.89645 127.83739 146.39812 157.09744 165.35027 181.52974 189.1628 205.8968 213.52986 232.64513 251.20586 269.14679 281.05307 297.19992">implement visionary </tspan>
      <tspan
        id="tspan36"
        y="161.2728"
        x="0 19.147881 31.054144 48.99509 66.936035 77.635361 85.268417 103.20937 121.15031 137.88432 146.16977 153.80283 172.36356 180.61638 198.55733 206.15776">practices in all</tspan>
      <tspan
        id="tspan38"
        y="201.59097"
        x="0 25.76972 43.710667 51.963501 71.111382 90.259262 98.5121">we do. </tspan>
    </text>
  </g>
</svg>
