<?xml version="1.0" encoding="UTF-8" standalone="no"?>
<svg
  xmlns:dc="http://purl.org/dc/elements/1.1/"
  xmlns:cc="http://creativecommons.org/ns#"
  xmlns:rdf="http://www.w3.org/1999/02/22-rdf-syntax-ns#"
  xmlns:svg="http://www.w3.org/2000/svg"
  xmlns="http://www.w3.org/2000/svg"
  viewBox="0 0 1101.3693 664.84131"
  height="664.84131"
  width="1101.3693"
  xml:space="preserve"
  id="svg2"
  version="1.1">
  <style>@font-face {
    font-family: HelveticaNeueLTStd-Bd;
    src: url(HelveticaNeueLTStd-Bd.otf);
}
@font-face {
  font-family: 'HelveticaNeueLTStd-Blk';
  src: url(HelveticaNeueLTStd-Blk.otf);
}</style>
  <metadata
    id="metadata8">
    <rdf:RDF>
      <cc:Work
        rdf:about="">
        <dc:format>image/svg+xml</dc:format>
        <dc:type
          rdf:resource="http://purl.org/dc/dcmitype/StillImage" />
      </cc:Work>
    </rdf:RDF>
  </metadata>
  <defs
    id="defs6">
    <clipPath
      id="clipPath18"
      clipPathUnits="userSpaceOnUse">
      <path
        id="path16"
        d="M 0,498.631 H 826.027 V 0 H 0 Z" />
    </clipPath>
  </defs>
  <g
    transform="matrix(1.3333333,0,0,-1.3333333,0,664.84133)"
    id="g10">
    <g
      id="g12">
      <g
        clip-path="url(#clipPath18)"
        id="g14">
        <g
          transform="translate(588.6045,10.2803)"
          id="g20">
          <path
            id="path22"
            style="fill:#98c93c;fill-opacity:1;fill-rule:nonzero;stroke:none"
            d="M 0,0 229.654,356.011 C -10.021,519.16 -333.778,527.38 -585.396,355.826 L -359.523,-4.905 c 50.367,39.634 113.907,63.28 182.971,63.28 C -110.39,58.375 -49.3,36.67 0,0" />
        </g>
      </g>
    </g>
    <text
      id="text26"
      style="font-variant:normal;font-weight:900;font-stretch:normal;font-size:64.70780182px;font-family: HelveticaNeueLTStd-Blk;-inkscape-font-specification:HelveticaNeueLTStd-Blk;writing-mode:lr-tb;fill:#05292f;fill-opacity:1;fill-rule:nonzero;stroke:none"
      transform="matrix(1,0,0,-1,207.8281,326.2471)">
      <tspan
        id="tspan24"
        y="0"
        x="0 49.630882 89.685013 128.5744 168.62852 188.36441 228.35382 267.24323 306.1326 332.98633 368.25208">Open doors.</tspan>
    </text>
    <text
      id="text36"
      style="font-variant:normal;font-weight:bold;font-stretch:normal;font-size:32.61989975px;font-family: HelveticaNeueLTStd-Bd;-inkscape-font-specification:HelveticaNeueLTStd-Bd;writing-mode:lr-tb;fill:#ffffff;fill-opacity:1;fill-rule:nonzero;stroke:none"
      transform="matrix(1,0,0,-1,134.2524,275.3286)">
      <tspan
        id="tspan28"
        y="0"
        x="0 31.119385 50.169407 59.531319 78.581337 91.59668 110.6467 120.04123 139.71103 158.76105 171.7764 190.82642 200.18832 211.99673 232.25369 241.64822 261.31802 280.36804 289.07755 309.3345 318.69641 338.92075 358.59055 371.6059 381.00043 400.05045 419.72025 437.56332 449.37173 469.59607 499.47592 518.52594 531.54126 549.38434">We are here to help our customers </tspan>
      <tspan
        id="tspan30"
        y="40.318195"
        x="13.01534 26.03068 45.0807 64.130722 72.84024 81.549751 98.805679 117.8557 127.25023 145.09332 164.76311 183.81314 202.86316 221.91318 239.75627 257.59937 266.9939 276.38843 296.61276 323.45892 343.12872 352.49063 372.16043 392.38477 422.26462 441.31464 459.15771 468.51962 480.32803 499.99783 519.04785 536.30377">realize success, own homes they </tspan>
      <tspan
        id="tspan32"
        y="80.636391"
        x="6.0020614 14.744195 34.968533 52.25708 71.307098 80.70163 90.063545 109.11356 128.78337 149.04033 158.40224 177.45226 190.46759 209.51762 228.56764 240.37604 259.42606 268.78796 298.66782 318.92477 331.94009 350.99011 360.38464 380.6416 400.89856 421.12289 441.37985 454.3952 466.20361 485.87341 505.54321 514.28534 526.09375 543.34967">love, and create more opportunity </tspan>
      <tspan
        id="tspan34"
        y="120.95459"
        x="83.735283 94.891289 115.11562 128.13097 137.49287 149.30128 168.97108 188.0211 217.90092 227.29546 247.51981 267.77676 294.65555 314.32535 323.68726 335.49567 355.16547 374.21548 383.57739 396.59274 416.81708 435.8671 456.12405 465.51859">for them down the road. </tspan>
    </text>
  </g>
</svg>
