<?xml version="1.0" encoding="UTF-8" standalone="no"?>
<svg
  xmlns:dc="http://purl.org/dc/elements/1.1/"
  xmlns:cc="http://creativecommons.org/ns#"
  xmlns:rdf="http://www.w3.org/1999/02/22-rdf-syntax-ns#"
  xmlns:svg="http://www.w3.org/2000/svg"
  xmlns="http://www.w3.org/2000/svg"
  viewBox="0 0 691.99866 1036.1107"
  height="1036.1107"
  width="691.99866"
  xml:space="preserve"
  id="svg2"
  version="1.1">
  <metadata
    id="metadata8">
    <rdf:RDF>
      <cc:Work
        rdf:about="">
        <dc:format>image/svg+xml</dc:format>
        <dc:type
          rdf:resource="http://purl.org/dc/dcmitype/StillImage" />
      </cc:Work>
    </rdf:RDF>
  </metadata>
  <defs
    id="defs6">
    <clipPath
      id="clipPath18"
      clipPathUnits="userSpaceOnUse">
      <path
        id="path16"
        d="M 0,777.083 H 518.999 V 0 H 0 Z" />
    </clipPath>
  </defs>
  <g
    transform="matrix(1.3333333,0,0,-1.3333333,0,1036.1107)"
    id="g10">
    <g
      id="g12">
      <g
        clip-path="url(#clipPath18)"
        id="g14">
        <g
          transform="translate(518.1514,418.1641)"
          id="g20">
          <path
            id="path22"
            style="fill:#ffc514;fill-opacity:1;fill-rule:nonzero;stroke:none"
            d="M 0,0 -235.631,357.794 C -476.484,171.545 -568.713,-138.913 -487.617,-417.27 l 420.851,99.245 c -13.166,33.52 -20.4,70.02 -20.4,108.211 0,81.99 33.326,156.193 87.166,209.814" />
        </g>
      </g>
    </g>
    <text
      id="text26"
      style="font-variant:normal;font-weight:900;font-stretch:normal;font-size:64.70780182px;font-family:'HelveticaNeueLT Std Blk';-inkscape-font-specification:HelveticaNeueLTStd-Blk;writing-mode:lr-tb;fill:#05292f;fill-opacity:1;fill-rule:nonzero;stroke:none"
      transform="matrix(1,0,0,-1,98.5288,416.3296)">
      <tspan
        id="tspan24"
        y="0"
        x="0 43.613056 81.20829 108.06203 148.05145 167.78732 192.18216 219.0359 259.02533 294.29108 318.68591">Earn trust.</tspan>
    </text>
    <text
      id="text32"
      style="font-variant:normal;font-weight:bold;font-stretch:normal;font-size:32.61989975px;font-family:'HelveticaNeueLT Std';-inkscape-font-specification:HelveticaNeueLTStd-Bd;writing-mode:lr-tb;fill:#ffffff;fill-opacity:1;fill-rule:nonzero;stroke:none"
      transform="matrix(1,0,0,-1,100.1758,360.8071)">
      <tspan
        id="tspan28"
        y="0"
        x="0 24.464926 44.721882 56.530285 76.200089 84.909599 104.5794 124.80373 134.19827 161.07707 181.33403 194.34937 213.39938">Nothing works</tspan>
      <tspan
        id="tspan30"
        y="40.318195"
        x="0 26.878798 35.58831 47.396713 67.066513 87.323471 106.99327 118.80167 128.19621 136.93834 148.74675">without it.</tspan>
    </text>
  </g>
</svg>
