<?xml version="1.0" encoding="UTF-8" standalone="no"?>
<svg
  xmlns:dc="http://purl.org/dc/elements/1.1/"
  xmlns:cc="http://creativecommons.org/ns#"
  xmlns:rdf="http://www.w3.org/1999/02/22-rdf-syntax-ns#"
  xmlns:svg="http://www.w3.org/2000/svg"
  xmlns="http://www.w3.org/2000/svg"
  viewBox="0 0 577.33197 463.11066"
  height="463.11066"
  width="577.33197"
  xml:space="preserve"
  id="svg2"
  version="1.1">
  <metadata
    id="metadata8">
    <rdf:RDF>
      <cc:Work
        rdf:about="">
        <dc:format>image/svg+xml</dc:format>
        <dc:type
          rdf:resource="http://purl.org/dc/dcmitype/StillImage" />
      </cc:Work>
    </rdf:RDF>
  </metadata>
  <defs
    id="defs6">
    <clipPath
      id="clipPath22"
      clipPathUnits="userSpaceOnUse">
      <path
        id="path20"
        d="M 0,347.333 H 432.999 V 0 H 0 Z" />
    </clipPath>
  </defs>
  <g
    transform="matrix(1.3333333,0,0,-1.3333333,0,463.11067)"
    id="g10">
    <g
      transform="translate(137.666,208.4707)"
      id="g12">
      <path
        id="path14"
        style="fill:#05292f;fill-opacity:1;fill-rule:nonzero;stroke:none"
        d="M 0,0 H 16.15 L 31.857,-54.927 47.713,0 H 63.42 L 38.729,-72.352 H 24.445 Z" />
    </g>
    <g
      id="g16">
      <g
        clip-path="url(#clipPath22)"
        id="g18">
        <g
          transform="translate(211.3057,146.231)"
          id="g24">
          <path
            id="path26"
            style="fill:#05292f;fill-opacity:1;fill-rule:nonzero;stroke:none"
            d="m 0,0 c 1.308,-1.081 2.911,-1.621 4.812,-1.621 3.009,0 5.781,0.884 8.318,2.651 2.536,1.768 3.852,4.99 3.952,9.671 v 5.202 c -0.884,-0.557 -1.776,-1.007 -2.675,-1.35 -0.901,-0.344 -2.136,-0.662 -3.706,-0.957 L 7.559,13.007 C 4.612,12.483 2.503,11.845 1.228,11.093 -0.933,9.815 -2.013,7.837 -2.013,5.152 -2.013,2.764 -1.343,1.046 0,0 m -10.407,37.599 c 3.698,4.713 10.046,7.068 19.046,7.068 5.858,0 11.061,-1.162 15.609,-3.485 4.548,-2.324 6.823,-6.708 6.823,-13.155 V 3.484 c 0,-1.702 0.033,-3.763 0.098,-6.184 0.098,-1.833 0.376,-3.076 0.834,-3.732 0.459,-0.654 1.145,-1.194 2.061,-1.618 v -2.062 H 18.849 c -0.426,1.079 -0.72,2.093 -0.884,3.044 -0.165,0.948 -0.295,2.028 -0.392,3.238 -1.932,-2.094 -4.157,-3.877 -6.677,-5.351 -3.01,-1.732 -6.413,-2.6 -10.209,-2.6 -4.844,0 -8.844,1.383 -12,4.147 -3.161,2.766 -4.739,6.684 -4.739,11.756 0,6.579 2.535,11.339 7.609,14.283 2.782,1.604 6.872,2.749 12.27,3.437 l 4.763,0.59 c 2.584,0.326 4.432,0.736 5.547,1.227 1.995,0.85 2.994,2.176 2.994,3.976 0,2.192 -0.761,3.706 -2.283,4.54 -1.522,0.834 -3.755,1.252 -6.701,1.252 -3.305,0 -5.644,-0.819 -7.019,-2.454 -0.981,-1.211 -1.637,-2.847 -1.963,-4.909 h -13.498 c 0.294,4.679 1.604,8.525 3.926,11.535" />
        </g>
        <path
          id="path28"
          style="fill:#05292f;fill-opacity:1;fill-rule:nonzero;stroke:none"
          d="m 251.069,208.471 h 13.988 v -72.352 h -13.988 z" />
        <g
          transform="translate(308.9932,143.6782)"
          id="g30">
          <path
            id="path32"
            style="fill:#05292f;fill-opacity:1;fill-rule:nonzero;stroke:none"
            d="m 0,0 c -0.131,-0.165 -0.459,-0.655 -0.981,-1.474 -0.525,-0.818 -1.147,-1.537 -1.867,-2.158 -2.191,-1.965 -4.311,-3.306 -6.355,-4.026 -2.045,-0.719 -4.443,-1.08 -7.192,-1.08 -7.919,0 -13.252,2.847 -16.001,8.542 -1.539,3.14 -2.307,7.77 -2.307,13.89 v 32.25 h 14.333 v -32.25 c 0,-3.044 0.358,-5.335 1.079,-6.873 1.276,-2.716 3.78,-4.072 7.511,-4.072 4.777,0 8.05,1.93 9.816,5.791 0.916,2.094 1.374,4.859 1.374,8.296 V 45.944 H 13.597 V -7.56 L 0,-7.56 Z" />
        </g>
        <g
          transform="translate(364.0225,168.2202)"
          id="g34">
          <path
            id="path36"
            style="fill:#05292f;fill-opacity:1;fill-rule:nonzero;stroke:none"
            d="m 0,0 c -0.229,3.697 -1.349,6.504 -3.361,8.418 -2.014,1.915 -4.51,2.872 -7.487,2.872 -3.24,0 -5.752,-1.015 -7.535,-3.042 C -20.167,6.217 -21.288,3.47 -21.745,0 Z m 13.842,-16.395 c -0.36,-3.174 -2.013,-6.397 -4.958,-9.669 -4.582,-5.203 -10.993,-7.804 -19.24,-7.804 -6.808,0 -12.812,2.191 -18.015,6.576 -5.204,4.386 -7.806,11.519 -7.806,21.402 0,9.261 2.348,16.362 7.045,21.304 4.695,4.94 10.789,7.411 18.284,7.411 4.45,0 8.459,-0.835 12.026,-2.503 3.566,-1.67 6.511,-4.302 8.836,-7.903 2.094,-3.174 3.452,-6.856 4.074,-11.045 0.359,-2.453 0.506,-5.987 0.441,-10.602 h -36.618 c 0.197,-5.367 1.882,-9.129 5.056,-11.29 1.93,-1.341 4.254,-2.012 6.971,-2.012 2.879,0 5.219,0.817 7.018,2.455 0.982,0.884 1.85,2.11 2.603,3.68 z" />
        </g>
        <g
          transform="translate(422.8291,187.168)"
          id="g38">
          <path
            id="path40"
            style="fill:#05292f;fill-opacity:1;fill-rule:nonzero;stroke:none"
            d="M 0,0 C 4.187,-2.684 6.594,-7.298 7.216,-13.842 H -6.773 c -0.197,1.799 -0.704,3.223 -1.522,4.27 -1.539,1.898 -4.156,2.847 -7.853,2.847 -3.044,0 -5.212,-0.475 -6.504,-1.423 -1.293,-0.95 -1.939,-2.062 -1.939,-3.339 0,-1.603 0.687,-2.765 2.061,-3.484 1.375,-0.754 6.234,-2.046 14.578,-3.878 5.563,-1.309 9.735,-3.29 12.518,-5.94 2.748,-2.684 4.123,-6.037 4.123,-10.062 0,-5.302 -1.972,-9.63 -5.915,-12.983 -3.943,-3.354 -10.039,-5.032 -18.284,-5.032 -8.412,0 -14.62,1.775 -18.629,5.326 -4.008,3.55 -6.012,8.075 -6.012,13.572 h 14.185 c 0.295,-2.487 0.932,-4.254 1.914,-5.301 1.735,-1.866 4.941,-2.798 9.622,-2.798 2.748,0 4.933,0.409 6.552,1.227 1.621,0.817 2.43,2.047 2.43,3.681 0,1.572 -0.656,2.765 -1.964,3.584 -1.308,0.818 -6.169,2.225 -14.578,4.222 -6.055,1.504 -10.325,3.386 -12.811,5.644 -2.488,2.225 -3.731,5.431 -3.731,9.621 0,4.94 1.939,9.186 5.816,12.737 3.879,3.551 9.335,5.327 16.371,5.327 C -9.67,3.976 -4.221,2.65 0,0" />
        </g>
        <g
          transform="translate(155.7598,257.876)"
          id="g42">
          <path
            id="path44"
            style="fill:#95c83e;fill-opacity:1;fill-rule:nonzero;stroke:none"
            d="m 0,0 c 5.741,1.212 11.692,1.852 17.79,1.852 6.099,0 12.05,-0.641 17.792,-1.853 12.236,-2.582 23.522,-7.77 33.25,-14.957 3.474,-2.566 6.751,-5.383 9.799,-8.431 L 94.995,-7.025 123.088,21.067 89.069,-1.521 C 72.993,12.352 52.844,21.623 30.687,24.241 L 17.79,88.097 4.896,24.246 C -17.264,21.628 -37.412,12.353 -53.488,-1.521 l 20.236,-13.437 C -23.525,-7.771 -12.236,-2.583 0,0" />
        </g>
        <g
          transform="translate(191.3408,89.4146)"
          id="g46">
          <path
            id="path48"
            style="fill:#95c83e;fill-opacity:1;fill-rule:nonzero;stroke:none"
            d="m 0,0 c -5.742,-1.212 -11.693,-1.853 -17.791,-1.853 -6.097,0 -12.048,0.642 -17.791,1.854 -12.237,2.582 -23.519,7.776 -33.245,14.96 -3.475,2.566 -6.756,5.38 -9.805,8.429 L -94.996,7.025 -123.089,-21.066 -89.065,1.523 c 16.075,-13.871 36.22,-23.146 58.378,-25.764 l 12.896,-63.857 12.895,63.852 c 22.159,2.618 42.308,11.893 58.384,25.767 L 33.252,14.958 C 23.524,7.771 12.237,2.583 0,0" />
        </g>
        <g
          transform="translate(104.2773,122.603)"
          id="g50">
          <path
            id="path52"
            style="fill:#95c83e;fill-opacity:1;fill-rule:nonzero;stroke:none"
            d="m 0,0 c -7.187,9.728 -12.374,21.016 -14.957,33.251 -1.212,5.743 -1.854,11.693 -1.854,17.791 0,6.098 0.642,12.049 1.855,17.791 2.582,12.237 7.769,23.524 14.956,33.25 2.566,3.474 5.384,6.752 8.432,9.8 l -16.366,16.365 -28.09,28.092 22.588,-34.019 C -27.311,106.244 -36.58,86.096 -39.199,63.938 l -63.857,-12.896 63.853,-12.895 c 2.617,-22.158 11.892,-42.307 25.767,-58.383 z" />
        </g>
        <g
          transform="translate(172.9932,105.6558)"
          id="g54">
          <path
            id="path56"
            style="fill:#95c83e;fill-opacity:1;fill-rule:nonzero;stroke:none"
            d="m 0,0 c -37.923,0 -68.663,30.739 -68.663,68.662 0,37.921 30.74,68.662 68.663,68.662 19.272,0 36.688,-7.945 49.159,-20.733 l 3.485,3.486 C 39.282,133.758 20.635,142.253 0,142.253 c -40.644,0 -73.593,-32.947 -73.593,-73.591 0,-40.644 32.949,-73.593 73.593,-73.593 14.599,0 28.205,4.252 39.647,11.583 L 35.124,9.656 C 24.847,3.525 12.836,0 0,0" />
        </g>
      </g>
    </g>
  </g>
</svg>
